<svg width="50" height="50" viewBox="0 0 50 50" fill="none" xmlns="http://www.w3.org/2000/svg">
<circle cx="25" cy="25" r="25" fill="#E7F9FF"/>
<path d="M29.5392 14.1667H20.4609C16.5176 14.1667 14.1667 16.5175 14.1667 20.4609V29.5284C14.1667 33.4825 16.5176 35.8334 20.4609 35.8334H29.5284C33.4717 35.8334 35.8226 33.4825 35.8226 29.5392V20.4609C35.8334 16.5175 33.4826 14.1667 29.5392 14.1667ZM22.7684 26.3759C22.0317 27.4809 21.0134 28.38 19.8217 28.9759C19.7134 29.03 19.5834 29.0625 19.4642 29.0625C19.1609 29.0625 18.8792 28.9 18.7384 28.6184C18.5326 28.2175 18.6951 27.73 19.1067 27.5242C20.0492 27.0584 20.8509 26.3434 21.4251 25.4767C21.6201 25.1842 21.6201 24.8159 21.4251 24.5234C20.8401 23.6567 20.0384 22.9417 19.1067 22.4759C18.6951 22.2809 18.5326 21.7934 18.7384 21.3817C18.9334 20.9809 19.4209 20.8184 19.8217 21.0242C21.0134 21.62 22.0317 22.5192 22.7684 23.6242C23.3317 24.4584 23.3317 25.5417 22.7684 26.3759ZM30.4167 29.0625H26.0834C25.6392 29.0625 25.2709 28.6942 25.2709 28.25C25.2709 27.8059 25.6392 27.4375 26.0834 27.4375H30.4167C30.8609 27.4375 31.2292 27.8059 31.2292 28.25C31.2292 28.6942 30.8609 29.0625 30.4167 29.0625Z" fill="#32C2F2"/>
</svg>
