<svg width="21" height="21" viewBox="0 0 21 21" fill="none" xmlns="http://www.w3.org/2000/svg">
<path d="M14.6667 18.8333H6.33337C5.99171 18.8333 5.70837 18.55 5.70837 18.2083C5.70837 17.8667 5.99171 17.5833 6.33337 17.5833H14.6667C15.0084 17.5833 15.2917 17.8667 15.2917 18.2083C15.2917 18.55 15.0084 18.8333 14.6667 18.8333Z" fill="#F7780C"/>
<path d="M17.4584 5.1L14.1251 7.48333C13.6834 7.8 13.0501 7.60833 12.8584 7.1L11.2834 2.9C11.0167 2.175 9.99173 2.175 9.72506 2.9L8.14173 7.09166C7.95006 7.60833 7.32506 7.8 6.88339 7.475L3.55006 5.09166C2.88339 4.625 2.00006 5.28333 2.27506 6.05833L5.74173 15.7667C5.85839 16.1 6.17506 16.3167 6.52506 16.3167H14.4667C14.8167 16.3167 15.1334 16.0917 15.2501 15.7667L18.7167 6.05833C19.0001 5.28333 18.1167 4.625 17.4584 5.1ZM12.5834 12.7917H8.41673C8.07506 12.7917 7.79173 12.5083 7.79173 12.1667C7.79173 11.825 8.07506 11.5417 8.41673 11.5417H12.5834C12.9251 11.5417 13.2084 11.825 13.2084 12.1667C13.2084 12.5083 12.9251 12.7917 12.5834 12.7917Z" fill="#F7780C"/>
</svg>
