<svg width="21" height="21" viewBox="0 0 21 21" fill="none" xmlns="http://www.w3.org/2000/svg">
<path d="M11.125 13.7667H11.6667C12.2083 13.7667 12.6583 13.2833 12.6583 12.7C12.6583 11.975 12.4 11.8333 11.975 11.6833L11.1333 11.3917V13.7667H11.125Z" fill="#6635F1"/>
<path d="M10.475 2.08333C5.87502 2.1 2.15002 5.84167 2.16668 10.4417C2.18335 15.0417 5.92501 18.7667 10.525 18.75C15.125 18.7333 18.85 14.9917 18.8333 10.3917C18.8167 5.79167 15.075 2.075 10.475 2.08333ZM12.3833 10.5C13.0333 10.725 13.9083 11.2083 13.9083 12.7C13.9083 13.9833 12.9 15.0167 11.6667 15.0167H11.125V15.5C11.125 15.8417 10.8417 16.125 10.5 16.125C10.1583 16.125 9.87502 15.8417 9.87502 15.5V15.0167H9.57502C8.20835 15.0167 7.10002 13.8667 7.10002 12.45C7.10002 12.1083 7.38335 11.825 7.72502 11.825C8.06668 11.825 8.35002 12.1083 8.35002 12.45C8.35002 13.175 8.90002 13.7667 9.57502 13.7667H9.87502V10.95L8.61668 10.5C7.96668 10.275 7.09168 9.79167 7.09168 8.3C7.09168 7.01667 8.10002 5.98333 9.33335 5.98333H9.87502V5.5C9.87502 5.15833 10.1583 4.875 10.5 4.875C10.8417 4.875 11.125 5.15833 11.125 5.5V5.98333H11.425C12.7917 5.98333 13.9 7.13333 13.9 8.55C13.9 8.89167 13.6167 9.175 13.275 9.175C12.9333 9.175 12.65 8.89167 12.65 8.55C12.65 7.825 12.1 7.23333 11.425 7.23333H11.125V10.05L12.3833 10.5Z" fill="#6635F1"/>
<path d="M8.34998 8.30833C8.34998 9.03333 8.60831 9.175 9.03331 9.325L9.87498 9.61666V7.23333H9.33331C8.79164 7.23333 8.34998 7.71666 8.34998 8.30833Z" fill="#6635F1"/>
</svg>
