<svg width="101" height="100" viewBox="0 0 101 100" fill="none" xmlns="http://www.w3.org/2000/svg">
<rect x="0.5" width="100" height="100" rx="50" fill="white"/>
<path opacity="0.4" d="M71.3332 40.4792V52.9792C71.3332 56.1042 70.2915 58.7083 68.4582 60.5417C66.6457 62.3542 64.0415 63.3958 60.9165 63.3958V67.8333C60.9165 69.5 59.0624 70.5001 57.6874 69.5834L48.4165 63.3958H43.9998C44.1665 62.7708 44.2498 62.125 44.2498 61.4584C44.2498 59.3334 43.4373 57.3751 42.104 55.8959C40.604 54.1876 38.3748 53.125 35.9165 53.125C33.5832 53.125 31.4582 54.0834 29.9373 55.6459C29.7498 54.8126 29.6665 53.9167 29.6665 52.9792V40.4792C29.6665 34.2292 33.8332 30.0625 40.0832 30.0625H60.9165C67.1665 30.0625 71.3332 34.2292 71.3332 40.4792Z" fill="#6635F1"/>
<path d="M57.7918 48.4375H43.2085C42.3543 48.4375 41.646 47.7292 41.646 46.875C41.646 46.0208 42.3543 45.3125 43.2085 45.3125H57.7918C58.646 45.3125 59.3543 46.0208 59.3543 46.875C59.3543 47.7292 58.646 48.4375 57.7918 48.4375Z" fill="#6635F1"/>
<path d="M42.1043 55.8959C40.6043 54.1875 38.3752 53.125 35.9168 53.125C31.3127 53.125 27.5835 56.8542 27.5835 61.4583C27.5835 63.0208 28.021 64.5 28.7918 65.75C29.2085 66.4583 29.7502 67.1041 30.3752 67.6458C31.8335 68.9791 33.771 69.7917 35.9168 69.7917C38.9585 69.7917 41.6044 68.1667 43.0419 65.75C43.8127 64.5 44.2502 63.0208 44.2502 61.4583C44.2502 59.3333 43.4377 57.375 42.1043 55.8959ZM39.2502 64.75C38.9377 65.0625 38.5418 65.2083 38.146 65.2083C37.7502 65.2083 37.3543 65.0625 37.0418 64.75L35.9377 63.6458L34.7918 64.7916C34.4793 65.1041 34.0835 65.25 33.6876 65.25C33.2918 65.25 32.896 65.1041 32.5835 64.7916C31.9793 64.1875 31.9793 63.1875 32.5835 62.5833L33.7294 61.4375L32.6252 60.3334C32.021 59.7292 32.021 58.7292 32.6252 58.1251C33.2294 57.5209 34.2294 57.5209 34.8335 58.1251L35.9377 59.2292L36.9793 58.1875C37.5835 57.5833 38.5835 57.5833 39.1877 58.1875C39.7918 58.7917 39.7918 59.7916 39.1877 60.3958L38.146 61.4375L39.2502 62.5417C39.8543 63.1459 39.8543 64.125 39.2502 64.75Z" fill="#6635F1"/>
</svg>
