<svg width="50" height="50" viewBox="0 0 50 50" fill="none" xmlns="http://www.w3.org/2000/svg">
<circle cx="25" cy="25" r="25" fill="#EBE9FF"/>
<path d="M20.9807 18.8142C20.5257 18.8142 20.1682 18.4459 20.1682 18.0017V14.9792C20.1682 14.535 20.5257 14.1667 20.9807 14.1667C21.4357 14.1667 21.7932 14.535 21.7932 14.9792V17.9909C21.7932 18.4459 21.4357 18.8142 20.9807 18.8142Z" fill="#6635F1"/>
<path d="M29.0193 18.8142C28.5643 18.8142 28.2068 18.4459 28.2068 18.0017V14.9792C28.2068 14.5242 28.5751 14.1667 29.0193 14.1667C29.4743 14.1667 29.8318 14.535 29.8318 14.9792V17.9909C29.8318 18.4459 29.4743 18.8142 29.0193 18.8142Z" fill="#6635F1"/>
<path d="M33.2008 16.875C32.4858 16.3442 31.4566 16.8534 31.4566 17.7525V17.8609C31.4566 19.1284 30.5466 20.2984 29.2791 20.4284C27.8166 20.58 26.5816 19.4317 26.5816 18.0017V16.875C26.5816 16.2792 26.0941 15.7917 25.4983 15.7917H24.5016C23.9058 15.7917 23.4183 16.2792 23.4183 16.875V18.0017C23.4183 18.8575 22.9741 19.6159 22.3024 20.0384C22.2049 20.1034 22.0966 20.1575 21.9883 20.2117C21.8908 20.2659 21.7824 20.3092 21.6633 20.3417C21.5333 20.385 21.3924 20.4175 21.2408 20.4284C21.0674 20.45 20.8941 20.45 20.7208 20.4284C20.5691 20.4175 20.4283 20.385 20.2983 20.3417C20.1899 20.3092 20.0816 20.2659 19.9733 20.2117C19.8649 20.1575 19.7566 20.1034 19.6591 20.0384C18.9766 19.5617 18.5433 18.7384 18.5433 17.8609V17.7525C18.5433 16.9184 17.6549 16.42 16.9508 16.7775C16.9399 16.7884 16.9291 16.7884 16.9183 16.7992C16.8749 16.8209 16.8424 16.8425 16.7991 16.875C16.7666 16.9075 16.7233 16.9292 16.6908 16.9617C16.3874 17.2 16.1166 17.4709 15.8891 17.7634C15.7699 17.8934 15.6724 18.0342 15.5858 18.175C15.5749 18.1859 15.5641 18.1967 15.5533 18.2184C15.4558 18.3592 15.3691 18.5217 15.2933 18.6734C15.2716 18.695 15.2608 18.7059 15.2608 18.7275C15.1958 18.8575 15.1308 18.9875 15.0874 19.1284C15.0549 19.1825 15.0441 19.2259 15.0224 19.28C14.9574 19.4425 14.9141 19.605 14.8708 19.7675C14.8274 19.9192 14.7949 20.0817 14.7733 20.2442C14.7516 20.3634 14.7408 20.4825 14.7299 20.6125C14.7191 20.7642 14.7083 20.9159 14.7083 21.0675V30.5575C14.7083 33.4717 17.0699 35.8334 19.9841 35.8334H30.0157C32.9299 35.8334 35.2916 33.4717 35.2916 30.5575V21.0675C35.2916 19.345 34.4683 17.8392 33.2008 16.875ZM24.9999 29.6042H23.1691V31.5C23.1691 31.9442 22.8008 32.3125 22.3566 32.3125C21.9016 32.3125 21.5441 31.9442 21.5441 31.5V29.6042H19.5833C19.1391 29.6042 18.7708 29.2359 18.7708 28.7917C18.7708 28.3475 19.1391 27.9792 19.5833 27.9792H21.5441V26.0834C21.5441 25.6392 21.9016 25.2709 22.3566 25.2709C22.8008 25.2709 23.1691 25.6392 23.1691 26.0834V27.9792H24.9999C25.4441 27.9792 25.8124 28.3475 25.8124 28.7917C25.8124 29.2359 25.4441 29.6042 24.9999 29.6042Z" fill="#6635F1"/>
</svg>
