<svg width="50" height="50" viewBox="0 0 50 50" fill="none" xmlns="http://www.w3.org/2000/svg">
<circle cx="25" cy="25" r="25" fill="#E1EDFF"/>
<path d="M31.5001 15.25H18.5001C16.1059 15.25 14.1667 17.1783 14.1667 19.5508V30.4492C14.1667 32.8217 16.1059 34.75 18.5001 34.75H31.5001C33.8942 34.75 35.8334 32.8217 35.8334 30.4492V19.5508C35.8334 17.1783 33.8942 15.25 31.5001 15.25ZM21.2084 19.7675C22.5842 19.7675 23.7109 20.8942 23.7109 22.27C23.7109 23.6458 22.5842 24.7725 21.2084 24.7725C19.8326 24.7725 18.7059 23.6458 18.7059 22.27C18.7059 20.8942 19.8326 19.7675 21.2084 19.7675ZM25.4009 30.0483C25.3034 30.1567 25.1517 30.2217 25.0001 30.2217H17.4167C17.2651 30.2217 17.1134 30.1567 17.0159 30.0483C16.9184 29.94 16.8642 29.7883 16.8751 29.6367C17.0592 27.8167 18.5109 26.3758 20.3309 26.2025C20.9051 26.1483 21.5009 26.1483 22.0751 26.2025C23.8951 26.3758 25.3576 27.8167 25.5309 29.6367C25.5526 29.7883 25.4984 29.94 25.4009 30.0483ZM32.5834 30.1458H30.4167C29.9726 30.1458 29.6042 29.7775 29.6042 29.3333C29.6042 28.8892 29.9726 28.5208 30.4167 28.5208H32.5834C33.0276 28.5208 33.3959 28.8892 33.3959 29.3333C33.3959 29.7775 33.0276 30.1458 32.5834 30.1458ZM32.5834 25.8125H28.2501C27.8059 25.8125 27.4376 25.4442 27.4376 25C27.4376 24.5558 27.8059 24.1875 28.2501 24.1875H32.5834C33.0276 24.1875 33.3959 24.5558 33.3959 25C33.3959 25.4442 33.0276 25.8125 32.5834 25.8125ZM32.5834 21.4792H27.1667C26.7226 21.4792 26.3542 21.1108 26.3542 20.6667C26.3542 20.2225 26.7226 19.8542 27.1667 19.8542H32.5834C33.0276 19.8542 33.3959 20.2225 33.3959 20.6667C33.3959 21.1108 33.0276 21.4792 32.5834 21.4792Z" fill="#2E82FE"/>
</svg>
