<svg width="50" height="50" viewBox="0 0 50 50" fill="none" xmlns="http://www.w3.org/2000/svg">
<circle cx="25" cy="25" r="25" fill="#FFE7D2"/>
<path d="M32.0091 14.1667H27.6758C26.0446 14.1667 24.6987 15.5838 24.4625 17.1893C24.4223 17.4625 24.6496 17.6875 24.9258 17.6875H29.8424C30.2866 17.6875 30.6549 18.0559 30.6549 18.5C30.6549 18.9442 30.2866 19.3125 29.8424 19.3125H24.9258C24.6496 19.3125 24.4258 19.5364 24.4258 19.8125V21.5209C24.4258 21.797 24.6496 22.0209 24.9258 22.0209H27.4699C27.9141 22.0209 28.2824 22.3892 28.2824 22.8334C28.2824 23.2775 27.9141 23.6459 27.4699 23.6459H24.9258C24.6496 23.6459 24.4258 23.8697 24.4258 24.1459V25.805C24.4258 26.0792 24.6466 26.3022 24.9208 26.305L29.8424 26.3542C30.2974 26.3542 30.6549 26.7225 30.6549 27.1775C30.6441 27.6217 30.2866 27.9792 29.8424 27.9792C29.8316 27.9792 29.8316 27.9792 29.8316 27.9792L24.9308 27.9301C24.6527 27.9273 24.4258 28.152 24.4258 28.4301V30.1875C24.4258 30.4637 24.6496 30.6875 24.9258 30.6875H28.6508C29.1058 30.6875 29.4633 31.0559 29.4633 31.5C29.4633 31.9442 29.1058 32.3125 28.6508 32.3125H24.9258C24.6496 32.3125 24.4223 32.5376 24.4625 32.8108C24.6987 34.4162 26.0446 35.8334 27.6758 35.8334H32.0091C33.7966 35.8334 35.2591 34.3817 35.2591 32.5834V17.4167C35.2591 15.6184 33.7966 14.1667 32.0091 14.1667Z" fill="#F7780C"/>
<path d="M21.1432 17.3625V18.2709C21.1432 18.547 20.9194 18.7709 20.6432 18.7709H15.2407C14.9646 18.7709 14.7407 18.547 14.7407 18.2709V17.3625C14.7407 15.6075 16.1816 14.1667 17.9474 14.1667C19.7024 14.1667 21.1432 15.6075 21.1432 17.3625Z" fill="#F7780C"/>
<path d="M14.7407 31.4025C14.7407 31.89 14.9466 32.6375 15.2066 33.0491L16.0841 34.5225C17.1132 36.2341 18.7816 36.2341 19.7999 34.5225L20.6882 33.0491C20.9374 32.6375 21.1432 31.89 21.1432 31.4025V20.8958C21.1432 20.6197 20.9194 20.3958 20.6432 20.3958H15.2407C14.9646 20.3958 14.7407 20.6197 14.7407 20.8958V31.4025Z" fill="#F7780C"/>
</svg>
