<svg width="32" height="32" viewBox="0 0 32 32" fill="none" xmlns="http://www.w3.org/2000/svg">
<path d="M21.8934 10.6C25.1467 13.8533 25.1467 19.1333 21.8934 22.3867C18.6401 25.64 13.3601 25.64 10.1067 22.3867C6.85341 19.1333 6.85341 13.8533 10.1067 10.6C13.3601 7.34667 18.6401 7.34667 21.8934 10.6Z" fill="#FFF0CA"/>
<path d="M10.9999 29.8533C10.8799 29.8533 10.7465 29.8267 10.6265 29.7867C7.62654 28.5867 5.19988 26.4667 3.57321 23.6667C1.99988 20.9333 1.37321 17.84 1.78655 14.6933C1.85321 14.1467 2.37321 13.76 2.90655 13.8267C3.45321 13.8933 3.83988 14.4 3.77321 14.9467C3.42654 17.6533 3.95988 20.32 5.30655 22.6667C6.69321 25.0667 8.78655 26.8933 11.3599 27.92C11.8665 28.1333 12.1199 28.7067 11.9199 29.2267C11.7732 29.6133 11.3865 29.8533 10.9999 29.8533Z" fill="#FFF0CA"/>
<path d="M7.79998 6.97333C7.50664 6.97333 7.21331 6.84 7.01331 6.58667C6.66664 6.16 6.74664 5.53333 7.18664 5.18667C9.71998 3.2 12.7733 2.14667 16 2.14667C19.1466 2.14667 22.1466 3.16 24.6666 5.08C25.1066 5.41333 25.1866 6.04 24.8533 6.48C24.52 6.92 23.8933 7 23.4533 6.66667C21.28 5.01333 18.7066 4.14667 16 4.14667C13.2266 4.14667 10.6 5.05333 8.41331 6.76C8.22664 6.90667 8.01331 6.97333 7.79998 6.97333Z" fill="#FFF0CA"/>
<path d="M21.0001 29.8533C20.6001 29.8533 20.2268 29.6133 20.0668 29.2267C19.8668 28.72 20.1068 28.1333 20.6268 27.92C23.2001 26.88 25.2934 25.0667 26.6801 22.6667C28.0401 20.32 28.5734 17.6533 28.2134 14.96C28.1468 14.4133 28.5334 13.9067 29.0801 13.84C29.6134 13.7733 30.1334 14.16 30.2001 14.7067C30.6001 17.84 29.9868 20.9467 28.4134 23.68C26.8001 26.48 24.3601 28.5867 21.3601 29.8C21.2534 29.8267 21.1334 29.8533 21.0001 29.8533Z" fill="#FFF0CA"/>
</svg>
