<svg width="50" height="50" viewBox="0 0 50 50" fill="none" xmlns="http://www.w3.org/2000/svg">
<circle cx="25" cy="25" r="25" fill="#EBE9FF"/>
<path d="M33.1358 18.3375L26.7008 14.6217C25.65 14.015 24.35 14.015 23.2883 14.6217L16.8642 18.3375C15.8133 18.9442 15.1633 20.0709 15.1633 21.295V28.705C15.1633 29.9184 15.8133 31.045 16.8642 31.6625L23.2992 35.3784C24.35 35.985 25.65 35.985 26.7117 35.3784L33.1467 31.6625C34.1975 31.0559 34.8475 29.9292 34.8475 28.705V21.295C34.8367 20.0709 34.1867 18.955 33.1358 18.3375ZM25 19.9517C26.3975 19.9517 27.5242 21.0784 27.5242 22.4759C27.5242 23.8734 26.3975 25 25 25C23.6025 25 22.4758 23.8734 22.4758 22.4759C22.4758 21.0892 23.6025 19.9517 25 19.9517ZM27.9033 30.0484H22.0967C21.2192 30.0484 20.71 29.0734 21.1975 28.3475C21.9342 27.2534 23.3642 26.5167 25 26.5167C26.6358 26.5167 28.0658 27.2534 28.8025 28.3475C29.29 29.0625 28.77 30.0484 27.9033 30.0484Z" fill="#6635F1"/>
</svg>
