<svg width="21" height="21" viewBox="0 0 21 21" fill="none" xmlns="http://www.w3.org/2000/svg">
<path d="M18.4666 9.45L17.3333 8.13333C17.1166 7.88333 16.9416 7.41667 16.9416 7.08333V5.66666C16.9416 4.78333 16.2166 4.05833 15.3333 4.05833H13.9166C13.5916 4.05833 13.1166 3.88333 12.8666 3.66666L11.5499 2.53333C10.9749 2.04166 10.0333 2.04166 9.44994 2.53333L8.14161 3.675C7.89161 3.88333 7.41661 4.05833 7.09161 4.05833H5.64994C4.76661 4.05833 4.04161 4.78333 4.04161 5.66666V7.09166C4.04161 7.41666 3.86661 7.88333 3.65828 8.13333L2.53328 9.45833C2.04994 10.0333 2.04994 10.9667 2.53328 11.5417L3.65828 12.8667C3.86661 13.1167 4.04161 13.5833 4.04161 13.9083V15.3333C4.04161 16.2167 4.76661 16.9417 5.64994 16.9417H7.09161C7.41661 16.9417 7.89161 17.1167 8.14161 17.3333L9.45828 18.4667C10.0333 18.9583 10.9749 18.9583 11.5583 18.4667L12.8749 17.3333C13.1249 17.1167 13.5916 16.9417 13.9249 16.9417H15.3416C16.2249 16.9417 16.9499 16.2167 16.9499 15.3333V13.9167C16.9499 13.5917 17.1249 13.1167 17.3416 12.8667L18.4749 11.55C18.9583 10.975 18.9583 10.025 18.4666 9.45ZM13.9666 8.925L9.94161 12.95C9.82494 13.0667 9.66661 13.1333 9.49994 13.1333C9.33328 13.1333 9.17494 13.0667 9.05828 12.95L7.04161 10.9333C6.79994 10.6917 6.79994 10.2917 7.04161 10.05C7.28328 9.80833 7.68328 9.80833 7.92494 10.05L9.49994 11.625L13.0833 8.04167C13.3249 7.8 13.7249 7.8 13.9666 8.04167C14.2083 8.28333 14.2083 8.68333 13.9666 8.925Z" fill="#0FB848"/>
</svg>
