<svg width="39" height="39" viewBox="0 0 39 39" fill="none" xmlns="http://www.w3.org/2000/svg">
<g clip-path="url(#clip0_12_1745)">
<path d="M38.3316 9.0966C38.3453 9.14726 38.3523 9.19949 38.3524 9.25197V17.4086C38.3524 17.5133 38.3248 17.6161 38.2724 17.7067C38.22 17.7973 38.1447 17.8724 38.054 17.9245L31.2193 21.866V29.6784C31.2193 29.891 31.1064 30.0873 30.9224 30.1943L16.6554 38.4208C16.6227 38.4394 16.5871 38.4513 16.5515 38.4639C16.5381 38.4684 16.5255 38.4766 16.5114 38.4803C16.4117 38.5066 16.3068 38.5066 16.2071 38.4803C16.1908 38.4758 16.1759 38.4669 16.1604 38.4609C16.1277 38.449 16.0936 38.4386 16.0624 38.4208L1.79836 30.1943C1.70774 30.1422 1.63245 30.067 1.58007 29.9765C1.52769 29.8859 1.50007 29.7831 1.5 29.6784V5.20861C1.5 5.15508 1.50742 5.10304 1.52078 5.05249C1.52523 5.03539 1.53562 5.01978 1.54156 5.00269C1.5527 4.97146 1.56309 4.9395 1.57941 4.9105C1.59055 4.89118 1.60687 4.87556 1.62023 4.85772C1.6373 4.83393 1.65289 4.8094 1.67293 4.78859C1.69 4.77149 1.71226 4.75885 1.73156 4.74398C1.75308 4.72614 1.77238 4.70681 1.79687 4.69269L8.93 0.579448C9.02031 0.527396 9.12268 0.5 9.22687 0.5C9.33107 0.5 9.43344 0.527396 9.52375 0.579448L16.6561 4.69269H16.6576C16.6814 4.70755 16.7014 4.72614 16.7229 4.74324C16.7422 4.75811 16.7637 4.77149 16.7808 4.78784C16.8016 4.8094 16.8164 4.83393 16.8343 4.85772C16.8469 4.87556 16.8639 4.89118 16.8743 4.9105C16.8914 4.94024 16.9011 4.97146 16.9129 5.00269C16.9189 5.01978 16.9293 5.03539 16.9337 5.05324C16.9474 5.1039 16.9544 5.15613 16.9545 5.20861V20.4922L22.8979 17.0644V9.25122C22.8979 9.19919 22.9053 9.1464 22.9187 9.0966C22.9239 9.07875 22.9335 9.06314 22.9395 9.04604C22.9513 9.01482 22.9617 8.98285 22.9781 8.95386C22.9892 8.93453 23.0055 8.91892 23.0181 8.90108C23.0359 8.87729 23.0508 8.85276 23.0716 8.83194C23.0886 8.81485 23.1102 8.80221 23.1295 8.78734C23.1517 8.7695 23.171 8.75017 23.1948 8.73605L30.3286 4.62281C30.4189 4.57068 30.5213 4.54324 30.6255 4.54324C30.7297 4.54324 30.8321 4.57068 30.9224 4.62281L38.0548 8.73605C38.08 8.75091 38.0993 8.7695 38.1216 8.7866C38.1401 8.80147 38.1616 8.81485 38.1787 8.8312C38.1995 8.85276 38.2143 8.87729 38.2322 8.90108C38.2455 8.91892 38.2618 8.93453 38.2722 8.95386C38.2893 8.98285 38.2989 9.01482 38.3108 9.04604C38.3175 9.06314 38.3272 9.07875 38.3316 9.0966ZM37.1634 17.0644V10.2816L34.6674 11.7208L31.2193 13.7094V20.4922L37.1642 17.0644H37.1634ZM30.031 29.3342V22.547L26.6392 24.4872L16.9537 30.0241V36.8753L30.031 29.3342ZM2.68898 6.23822V29.3342L15.7648 36.8745V30.0248L8.93371 26.1524L8.93148 26.151L8.92852 26.1495C8.90551 26.1361 8.88621 26.1168 8.86469 26.1004C8.84613 26.0855 8.82461 26.0736 8.80828 26.0573L8.8068 26.0551C8.7875 26.0365 8.77414 26.0134 8.75781 25.9926C8.74297 25.9725 8.72516 25.9554 8.71328 25.9346L8.71254 25.9324C8.69918 25.9101 8.69102 25.8833 8.68137 25.8581C8.67172 25.8358 8.6591 25.8149 8.65317 25.7912C8.64574 25.7629 8.64426 25.7324 8.64129 25.7034C8.63832 25.6811 8.63238 25.6588 8.63238 25.6365V9.66604L5.18494 7.6767L2.68898 6.23822ZM9.22762 1.78227L3.28495 5.20861L9.22613 8.63494L15.1681 5.20786L9.22613 1.78227H9.22762ZM12.3181 23.1655L15.7655 21.1776V6.23822L13.2695 7.67744L9.82136 9.66604V24.6054L12.3181 23.1655ZM30.6255 5.82563L24.6836 9.25197L30.6255 12.6783L36.5667 9.25122L30.6255 5.82563ZM30.031 13.7094L26.5828 11.7208L24.0869 10.2816V17.0644L27.5343 19.0522L30.031 20.4922V13.7094ZM16.3585 28.9945L25.074 24.0107L29.4306 21.5203L23.4931 18.0962L16.6569 22.0385L10.4262 25.6313L16.3585 28.9945Z" fill="#FF2D20"/>
</g>
<defs>
<clipPath id="clip0_12_1745">
<rect width="38" height="38" fill="white" transform="translate(0.5 0.5)"/>
</clipPath>
</defs>
</svg>
