<svg width="113" height="40" viewBox="0 0 113 40" fill="none" xmlns="http://www.w3.org/2000/svg">
<path d="M17.6197 29.6893C17.6485 26.7522 16.9038 24.3637 15.9566 24.3544C15.0094 24.3452 14.2182 26.7187 14.1895 29.6558C14.1608 32.5929 14.9054 34.9815 15.8526 34.9907C16.7999 35 17.5911 32.6265 17.6197 29.6893Z" fill="#6635F1"/>
<path d="M12.126 29.0222C13.7383 26.5669 14.4033 24.155 13.6115 23.635C12.8196 23.1151 10.8707 24.684 9.25858 27.1393C7.64635 29.5946 6.98133 32.0064 7.77314 32.5264C8.56501 33.0464 10.5138 31.4775 12.126 29.0222Z" fill="#6635F1"/>
<path d="M7.85865 25.4995C10.5424 24.3058 12.4059 22.6364 12.0209 21.7709C11.6359 20.9053 9.14825 21.1714 6.46447 22.3652C3.78072 23.559 1.91721 25.2283 2.30221 26.0939C2.68719 26.9594 5.1749 26.6933 7.85865 25.4995Z" fill="#6635F1"/>
<path d="M11.6988 19.3437C11.8429 18.4074 9.60628 17.2862 6.70324 16.8394C3.80013 16.3925 1.32989 16.7893 1.18579 17.7256C1.04169 18.6618 3.27828 19.783 6.18137 20.2298C9.08443 20.6767 11.5547 20.2799 11.6988 19.3437Z" fill="#6635F1"/>
<path d="M12.7411 17.1133C13.3685 16.4036 12.0928 14.2513 9.89192 12.3062C7.69102 10.361 5.3983 9.35957 4.77098 10.0694C4.14367 10.7792 5.41932 12.9314 7.62024 14.8766C9.82114 16.8217 12.1139 17.8232 12.7411 17.1133Z" fill="#6635F1"/>
<path d="M14.8168 15.8098C15.7283 15.5518 15.8189 13.0515 15.0191 10.2253C14.2194 7.39897 12.8321 5.31689 11.9207 5.57482C11.0092 5.83275 10.9186 8.333 11.7183 11.1593C12.5181 13.9856 13.9054 16.0677 14.8168 15.8098Z" fill="#6635F1"/>
<path d="M20.4533 11.2473C21.3087 8.43736 21.2675 5.93581 20.3612 5.65996C19.455 5.38411 18.027 7.43842 17.1716 10.2484C16.3163 13.0584 16.3575 15.5599 17.2638 15.8358C18.17 16.1116 19.598 14.0573 20.4533 11.2473Z" fill="#6635F1"/>
<path d="M24.481 15.0442C26.7195 13.1424 28.037 11.0155 27.4236 10.2936C26.8103 9.57169 24.4984 10.5281 22.26 12.4298C20.0214 14.3316 18.704 16.4585 19.3173 17.1804C19.9306 17.9024 22.2425 16.9459 24.481 15.0442Z" fill="#6635F1"/>
<path d="M25.8126 20.4172C28.724 20.0277 30.9822 18.9508 30.8566 18.0118C30.731 17.073 28.269 16.6276 25.3577 17.017C22.4464 17.4065 20.1881 18.4834 20.3137 19.4223C20.4393 20.3612 22.9012 20.8067 25.8126 20.4172Z" fill="#6635F1"/>
<path d="M29.5683 26.3623C29.9702 25.5045 28.14 23.7988 25.4803 22.5523C22.8207 21.3058 20.3387 20.9908 19.9367 21.8485C19.5347 22.7063 21.3649 24.4121 24.0246 25.6585C26.6843 26.9049 29.1663 27.2201 29.5683 26.3623Z" fill="#6635F1"/>
<path d="M23.9737 32.6911C24.7756 32.1869 24.1583 29.7624 22.5948 27.2758C21.0314 24.7892 19.1138 23.1822 18.3119 23.6864C17.51 24.1906 18.1273 26.6152 19.6908 29.1018C21.2542 31.5883 23.1718 33.1954 23.9737 32.6911Z" fill="#6635F1"/>
<path d="M46.14 10.936C48.4453 10.936 50.3433 11.4993 51.834 12.626C53.3247 13.7527 54.252 15.278 54.616 17.202H49.91C49.598 16.5433 49.1213 16.0233 48.48 15.642C47.8387 15.2433 47.0673 15.044 46.166 15.044C44.762 15.044 43.6353 15.5207 42.786 16.474C41.9367 17.41 41.512 18.684 41.512 20.296C41.512 22.0467 41.954 23.39 42.838 24.326C43.7393 25.262 45.0133 25.73 46.66 25.73C47.7173 25.73 48.6447 25.444 49.442 24.872C50.2393 24.2827 50.8027 23.4507 51.132 22.376H45.516V19.178H54.85V23.572C54.5033 24.6467 53.9487 25.6433 53.186 26.562C52.4233 27.4807 51.444 28.226 50.248 28.798C49.0693 29.37 47.7173 29.656 46.192 29.656C44.3373 29.656 42.7167 29.266 41.33 28.486C39.9433 27.6887 38.8687 26.5793 38.106 25.158C37.3607 23.7367 36.988 22.116 36.988 20.296C36.988 18.476 37.3607 16.8553 38.106 15.434C38.8687 14.0127 39.9347 12.912 41.304 12.132C42.6907 11.3347 44.3027 10.936 46.14 10.936ZM62.8507 14.81C63.96 14.81 64.9134 15.0613 65.7107 15.564C66.508 16.0667 67.0974 16.7513 67.4787 17.618V14.992H71.8987V29.5H67.4787V26.874C67.0974 27.7407 66.508 28.4253 65.7107 28.928C64.9134 29.4307 63.96 29.682 62.8507 29.682C61.6547 29.682 60.58 29.3873 59.6267 28.798C58.6907 28.1913 57.9454 27.3247 57.3907 26.198C56.8534 25.0713 56.5847 23.754 56.5847 22.246C56.5847 20.7207 56.8534 19.4033 57.3907 18.294C57.9454 17.1673 58.6907 16.3093 59.6267 15.72C60.58 15.1133 61.6547 14.81 62.8507 14.81ZM64.2807 18.71C63.3274 18.71 62.556 19.022 61.9667 19.646C61.3947 20.27 61.1087 21.1367 61.1087 22.246C61.1087 23.3553 61.3947 24.222 61.9667 24.846C62.556 25.47 63.3274 25.782 64.2807 25.782C65.2167 25.782 65.9794 25.4613 66.5687 24.82C67.1754 24.1787 67.4787 23.3207 67.4787 22.246C67.4787 21.154 67.1754 20.296 66.5687 19.672C65.9794 19.0307 65.2167 18.71 64.2807 18.71ZM96.1758 14.992L92.4578 29.5H87.4918L84.8658 19.776L82.2138 29.5H77.2478L73.5298 14.992H77.9758L79.8998 25.444L82.6038 14.992H87.3358L90.1178 25.47L92.0418 14.992H96.1758ZM111.566 21.856C111.566 22.22 111.523 22.6187 111.436 23.052H101.374C101.426 24.144 101.703 24.9327 102.206 25.418C102.709 25.886 103.35 26.12 104.13 26.12C104.789 26.12 105.335 25.9553 105.768 25.626C106.201 25.2967 106.487 24.872 106.626 24.352H111.332C111.141 25.3747 110.725 26.2933 110.084 27.108C109.443 27.9053 108.628 28.538 107.64 29.006C106.652 29.4567 105.551 29.682 104.338 29.682C102.917 29.682 101.651 29.3873 100.542 28.798C99.45 28.1913 98.592 27.3247 97.968 26.198C97.344 25.0713 97.032 23.754 97.032 22.246C97.032 20.7207 97.3353 19.4033 97.942 18.294C98.566 17.1673 99.4326 16.3093 100.542 15.72C101.651 15.1133 102.917 14.81 104.338 14.81C105.777 14.81 107.042 15.1047 108.134 15.694C109.226 16.2833 110.067 17.1153 110.656 18.19C111.263 19.2473 111.566 20.4693 111.566 21.856ZM107.068 21.18C107.085 20.2267 106.825 19.516 106.288 19.048C105.768 18.5627 105.118 18.32 104.338 18.32C103.523 18.32 102.847 18.5627 102.31 19.048C101.773 19.5333 101.469 20.244 101.4 21.18H107.068Z" fill="#030303"/>
</svg>
