<svg width="38" height="39" viewBox="0 0 38 39" fill="none" xmlns="http://www.w3.org/2000/svg">
<g clip-path="url(#clip0_13_1765)">
<g clip-path="url(#clip1_13_1765)">
<path d="M17.7571 0.529682C17.6754 0.537103 17.4157 0.563077 17.1819 0.58163C11.7905 1.06772 6.74036 3.97681 3.54184 8.44805C1.76077 10.9341 0.621621 13.7542 0.191194 16.7412C0.0390607 17.7839 0.0205078 18.0918 0.0205078 19.5056C0.0205078 20.9193 0.0390607 21.2273 0.191194 22.2699C1.22273 29.398 6.29509 35.3868 13.1745 37.6057C14.4064 38.0028 15.7051 38.2737 17.1819 38.4369C17.7571 38.5 20.2431 38.5 20.8183 38.4369C23.3674 38.1549 25.527 37.5241 27.6569 36.4369C27.9834 36.2699 28.0465 36.2254 28.002 36.1883C27.9723 36.166 26.5808 34.2996 24.911 32.0436L21.8758 27.9434L18.0725 22.3145C15.9797 19.2198 14.258 16.6892 14.2431 16.6892C14.2283 16.6855 14.2135 19.1865 14.206 22.2403C14.1949 27.5872 14.1912 27.8024 14.1244 27.9286C14.0279 28.1104 13.9537 28.1846 13.7979 28.2662C13.6791 28.3256 13.5752 28.3367 13.0149 28.3367H12.373L12.2023 28.2291C12.091 28.1586 12.0094 28.0659 11.9537 27.9583L11.8758 27.7913L11.8832 20.3516L11.8943 12.9082L12.0094 12.7634C12.0687 12.6855 12.1949 12.5853 12.284 12.5371C12.4361 12.4629 12.4955 12.4555 13.1374 12.4555C13.8943 12.4555 14.0205 12.4852 14.2172 12.7004C14.2728 12.7597 16.3322 15.8618 18.796 19.5983C21.2598 23.3349 24.629 28.4369 26.284 30.9416L29.2895 35.4944L29.4417 35.3942C30.7886 34.5185 32.2135 33.2718 33.3415 31.9731C35.7422 29.2161 37.2895 25.8544 37.809 22.2699C37.9611 21.2273 37.9797 20.9193 37.9797 19.5056C37.9797 18.0918 37.9611 17.7839 37.809 16.7412C36.7775 9.61317 31.7051 3.6243 24.8257 1.40538C23.6123 1.01206 22.3211 0.741184 20.8739 0.577919C20.5177 0.540813 18.065 0.499997 17.7571 0.529682ZM25.527 12.0102C25.7051 12.0993 25.8498 12.2699 25.9018 12.448C25.9315 12.5445 25.9389 14.6076 25.9315 19.257L25.9203 25.9286L24.7441 24.1252L23.5641 22.3219V17.4722C23.5641 14.3367 23.5789 12.5742 23.6012 12.4889C23.6606 12.2811 23.7905 12.1178 23.9686 12.0213C24.1207 11.9434 24.1764 11.936 24.7589 11.936C25.3081 11.936 25.4046 11.9434 25.527 12.0102Z" fill="black"/>
<path d="M29.104 35.5761C28.9741 35.6577 28.9333 35.7134 29.0483 35.6503C29.13 35.602 29.2635 35.5019 29.2413 35.4981C29.2301 35.4981 29.1671 35.5352 29.104 35.5761ZM28.8479 35.743C28.7812 35.795 28.7812 35.7987 28.8628 35.7579C28.9073 35.7356 28.9444 35.7096 28.9444 35.7022C28.9444 35.6725 28.9259 35.68 28.8479 35.743ZM28.6624 35.8544C28.5956 35.9063 28.5956 35.91 28.6773 35.8692C28.7218 35.8469 28.7589 35.821 28.7589 35.8135C28.7589 35.7839 28.7403 35.7913 28.6624 35.8544ZM28.4769 35.9657C28.4101 36.0176 28.4101 36.0213 28.4917 35.9805C28.5363 35.9583 28.5734 35.9323 28.5734 35.9249C28.5734 35.8952 28.5548 35.9026 28.4769 35.9657ZM28.1949 36.1141C28.0539 36.1883 28.0613 36.218 28.2023 36.1475C28.2654 36.1141 28.3136 36.0807 28.3136 36.0733C28.3136 36.0473 28.3099 36.051 28.1949 36.1141Z" fill="black"/>
</g>
</g>
<defs>
<clipPath id="clip0_13_1765">
<rect width="38" height="38" fill="white" transform="translate(0 0.5)"/>
</clipPath>
<clipPath id="clip1_13_1765">
<rect width="38" height="38" fill="white" transform="translate(0 0.5)"/>
</clipPath>
</defs>
</svg>
