<svg width="38" height="39" viewBox="0 0 38 39" fill="none" xmlns="http://www.w3.org/2000/svg">
<path d="M19 8.5C13.9332 8.5 10.7666 11.0327 9.49976 16.0976C11.4 13.5649 13.6167 12.6155 16.1499 13.2485C17.5954 13.6096 18.6284 14.6583 19.7722 15.8187C21.6349 17.709 23.7907 19.8967 28.5002 19.8967C33.5666 19.8967 36.7337 17.364 38 12.2986C36.1002 14.8313 33.8835 15.7812 31.3499 15.1482C29.9049 14.7871 28.8718 13.7384 27.7281 12.578C25.8654 10.6877 23.709 8.5 19 8.5ZM9.49976 19.8967C4.43341 19.8967 1.26635 22.4294 0 27.4948C1.89976 24.9621 4.11647 24.0122 6.65012 24.6456C8.09514 25.0072 9.12817 26.0555 10.2719 27.2154C12.1346 29.1056 14.291 31.2938 19 31.2938C24.0668 31.2938 27.2334 28.7611 28.5002 23.6957C26.6 26.2284 24.3833 27.1783 21.8501 26.5449C20.4046 26.1842 19.3716 25.135 18.2278 23.9751C16.3651 22.0849 14.2093 19.8967 9.49976 19.8967Z" fill="#06B6D4"/>
</svg>
